PathFileType	4	(X/Y/Z)	C:/Users/opensim2020/Desktop/walking_exp_matlab/subject02_walking11_straight_01.trc																																																																																																																												
DataRate	CameraRate	NumFrames	NumMarkers	Units	OrigDataRate	OrigDataStartFrame	OrigNumFrames																																																																																																																								
100	100	4	42	mm	100	734	267																																																																																																																								
Frame#	Time	LFHD			RFHD			LBHD			RBHD			C7			T10			CLAV			STRN			RBAK			LSHO			LUPA			LELB			LFRM			LWRA			LWRB			LFIN			RSHO			RUPA			RELB			RFRM			RWRA			RWRB			RFIN			LASI			RASI			LPSI			RPSI			LTHI			LKNE			LTIB			LANK			LHEE			LTOE			RTHI			RKNE			RTIB			RANK			RHEE			RTOE			*39			*40			*41		
		X1	Y1	Z1	X2	Y2	Z2	X3	Y3	Z3	X4	Y4	Z4	X5	Y5	Z5	X6	Y6	Z6	X7	Y7	Z7	X8	Y8	Z8	X9	Y9	Z9	X10	Y10	Z10	X11	Y11	Z11	X12	Y12	Z12	X13	Y13	Z13	X14	Y14	Z14	X15	Y15	Z15	X16	Y16	Z16	X17	Y17	Z17	X18	Y18	Z18	X19	Y19	Z19	X20	Y20	Z20	X21	Y21	Z21	X22	Y22	Z22	X23	Y23	Z23	X24	Y24	Z24	X25	Y25	Z25	X26	Y26	Z26	X27	Y27	Z27	X28	Y28	Z28	X29	Y29	Z29	X30	Y30	Z30	X31	Y31	Z31	X32	Y32	Z32	X33	Y33	Z33	X34	Y34	Z34	X35	Y35	Z35	X36	Y36	Z36	X37	Y37	Z37	X38	Y38	Z38	X39	Y39	Z39	X40	Y40	Z40	X41	Y41	Z41	X42	Y42	Z42
																																																																																																																															
1	0	-1177.71069	1740.82861	1444.03137	-1189.89197	1712.2533	1585.6377	-1301.30566	1658.40869	1419.18945	-1325.13367	1627.11877	1557.14026	-1360.66187	1519.46301	1479.69763	-1423.26062	1246.6073	1483.30457	-1224.81799	1448.71375	1470.45264	-1178.19678	1274.19824	1478.68237	-1426.53711	1348.46863	1541.11902	-1285.12646	1498.20776	1300.42786	-1313.61108	1300.37573	1215.11597	-1335.37256	1161.31775	1205.04333	-1347.07031	1032.1665	1185.19238	-1312.5553	897.79272	1209.66028	-1356.4292	909.07788	1176.80457	-1349.34009	841.96521	1171.9624	-1286.30188	1477.28381	1666.81262	-1320.75647	1286.55164	1750.88928	-1309.9397	1141.1748	1768.07727	-1282.87183	1025.97815	1790.57544	-1235.37708	898.39148	1773.9834	-1281.37561	895.69458	1805.12183	-1244.07715	833.94153	1810.62134	-1204.08447	971.16888	1355.56274	-1197.42896	974.15717	1612.14563	-1409.70667	1022.69971	1439.49158	-1413.0769	1031.81433	1554.18665	-1245.76318	660.85132	1294.17798	-1248.71509	478.09995	1304.88794	-1394.93726	366.0069	1299.19592	-1528.36426	185.61337	1314.74438	-1567.76135	178.16742	1370.46582	-1437.58374	60.64292	1287.76648	-1252.35535	675.2384	1688.745	-1241.13062	464.1282	1649.52368	-1276.63831	277.63156	1654.93018	-1286.36389	84.63882	1617.48938	-1316.55615	29.29586	1561.38782	-1133.41809	31.92738	1640.43652	-1291.54114	1792.59937	1528.82275	2845.27515	1034.2002	-3360.32739	NaN	NaN	NaN
2	0.01	-1171.90088	1741.67957	1446.61023	-1183.82153	1713.94495	1588.78442	-1295.33447	1659.40295	1422.33289	-1318.60986	1627.94568	1560.35718	-1353.98401	1520.61707	1483.05054	-1416.93115	1248.02136	1486.94885	-1217.68665	1449.87451	1473.48181	-1172.15027	1275.05725	1480.96594	-1419.69971	1349.91589	1544.89001	-1279.13538	1499.34741	1303.46204	-1308.07532	1301.1803	1218.35608	-1330.04443	1162.52258	1208.07214	-1340.85657	1033.02075	1188.79517	-1305.50793	898.87933	1213.03772	-1349.75464	909.8869	1180.42285	-1341.99561	842.69128	1175.98621	-1278.51172	1478.52966	1669.88928	-1312.29224	1287.6532	1754.24341	-1301.21973	1142.29358	1770.93933	-1274.24377	1027.03369	1793.02942	-1227.52966	899.34479	1776.25195	-1273.18848	896.82172	1807.87671	-1235.85913	835.05023	1813.13269	-1198.32861	973.18024	1357.52515	-1191.99414	974.3006	1614.0061	-1403.79712	1024.06738	1442.5802	-1406.89355	1032.55237	1557.09753	-1235.84619	663.70239	1295.4574	-1235.2738	480.61658	1307.00842	-1380.09351	366.32791	1303.99866	-1509.75293	183.47189	1320.61841	-1548.51587	173.9548	1377.20886	-1416.22717	62.70037	1288.47437	-1249.5708	675.09833	1690.0072	-1239.89343	464.04654	1650.06177	-1276.12354	277.71158	1655.27832	-1286.19165	84.61381	1617.33667	-1316.29871	29.17124	1561.05457	-1133.34009	31.91277	1640.42834	-1285.70789	1793.58118	1531.99609	2845.91284	1034.36401	-3357.29565	NaN	NaN	NaN
3	0.02	-1166.25659	1743.62915	1449.61743	-1177.27014	1714.98083	1591.1084	-1289.25586	1660.33435	1425.3064	-1312.01245	1628.75269	1563.43835	-1347.31384	1521.71387	1486.31494	-1410.60779	1249.38904	1490.51709	-1211.27124	1450.83838	1476.01465	-1165.46143	1276.01233	1483.69202	-1412.74072	1351.20679	1548.55762	-1273.24878	1500.40845	1306.45496	-1303.3335	1302.78076	1221.18787	-1324.54688	1163.65686	1211.0448	-1334.57336	1033.86682	1191.85803	-1298.38733	900.33118	1216.4054	-1343.0824	910.74597	1183.91614	-1334.24841	843.21759	1179.96606	-1270.83032	1479.88098	1672.78833	-1303.80286	1288.85852	1757.43469	-1292.32971	1143.41187	1773.60742	-1265.70862	1028.26184	1795.70483	-1219.32617	900.41724	1778.39429	-1264.82336	898.00952	1810.51904	-1227.61975	836.30786	1815.57227	-1192.40881	974.95813	1359.51489	-1185.72461	975.24994	1616.4342	-1397.7738	1025.32983	1445.25024	-1400.72571	1033.17944	1559.79944	-1225.6803	666.36707	1296.88171	-1222.24915	482.89276	1309.08716	-1365.40771	365.8718	1308.70215	-1490.41064	180.20512	1326.19995	-1528.46228	168.74367	1383.14368	-1393.28308	63.52464	1290.53564	-1247.36499	674.97205	1690.72131	-1238.55066	463.96365	1650.88831	-1275.46509	277.7373	1655.69556	-1286.10779	84.65576	1617.32922	-1316.50146	29.39054	1561.12988	-1133.28296	31.87462	1640.47742	-1279.7594	1794.44897	1534.95642	2845.8833	1034.35193	-3357.38745	NaN	NaN	NaN
4	0.03	-1160.45508	1744.92712	1452.06934	-1170.83728	1716.16052	1593.53577	-1283.35242	1661.18506	1428.19727	-1305.3689	1629.51855	1566.38501	-1340.67493	1522.74414	1489.4314	-1404.3219	1250.60669	1493.97327	-1204.60681	1451.81104	1478.61694	-1159.85522	1276.57837	1485.67004	-1405.90845	1352.573	1552.17029	-1267.36694	1501.37219	1309.35461	-1298.21777	1303.86877	1224.45117	-1318.97595	1164.67944	1214.00574	-1328.19543	1034.48108	1195.38086	-1291.32019	901.29144	1219.43457	-1335.94177	911.40149	1187.40796	-1326.85229	844.26385	1183.37061	-1263.08459	1481.15857	1675.63647	-1295.33899	1290.08911	1760.49902	-1283.48645	1144.61536	1776.36755	-1257.41138	1029.74939	1798.77686	-1211.08582	901.46179	1780.3717	-1256.3689	899.40179	1813.06287	-1219.10791	837.49255	1817.85156	-1186.37598	976.97992	1361.82983	-1180.17444	975.961	1618.53271	-1391.6665	1026.53308	1447.55322	-1394.56287	1033.64966	1562.26685	-1215.7605	668.96997	1298.23914	-1209.76404	485.00372	1311.1582	-1350.63953	364.66977	1313.1488	-1470.24634	175.9653	1331.53772	-1507.05505	162.64339	1388.71973	-1369.73438	63.33659	1293.14319	-1245.02026	674.69525	1691.40344	-1237.28564	463.72897	1651.45886	-1274.78674	277.72784	1656.09741	-1286.00354	84.69652	1617.33496	-1316.54431	29.50499	1560.98804	-1133.25232	31.71321	1640.57361	-1273.97546	1795.43604	1537.83362	2845.74902	1034.2561	-3357.40723	NaN	NaN	NaN
